<svg xmlns="http://www.w3.org/2000/svg"  viewBox="0 0 24 24">
  <g id="wallet-icon" transform="translate(-1073 361)">
    <rect id="사각형_8771" data-name="사각형 8771" width="24" height="24" transform="translate(1073 -361)" fill="none"/>
    <path id="wallet" d="M52.071,52.346H38.384a.66.66,0,0,1-.236-1.3H52.071a4.468,4.468,0,0,1,.6.038,3.536,3.536,0,0,0-4-3.03,1.559,1.559,0,0,0-.155.027L34.971,50.414c-.182.027-.37.06-.552.1h-.011c-.07.011-.134.027-.2.043a3.55,3.55,0,0,0-2.679,3.522v1.309a3.72,3.72,0,0,0-.027.422V66.2a3.449,3.449,0,0,0,3.429,3.463H52.071A3.449,3.449,0,0,0,55.5,66.2V55.808A3.449,3.449,0,0,0,52.071,52.346ZM49.527,62.734A1.732,1.732,0,1,1,51.241,61,1.721,1.721,0,0,1,49.527,62.734Z" transform="translate(1041.5 -407.839)" fill="current"/>
  </g>
</svg>
