<svg xmlns="http://www.w3.org/2000/svg" width="60" height="60" viewBox="0 0 60 60">
  <g id="icon3" transform="translate(-999 -3578)">
    <rect id="사각형_8922" data-name="사각형 8922" width="60" height="60" rx="12" transform="translate(999 3578)" fill="#efefef"/>
    <g id="_x35_2" transform="translate(1012.205 3589.774)">
      <path id="패스_87841" data-name="패스 87841" d="M45.493,25.5a.592.592,0,1,0,.6.589A.588.588,0,0,0,45.493,25.5Z" transform="translate(-17.146 -7.87)" fill="#1c78f2"/>
      <path id="패스_87842" data-name="패스 87842" d="M45.493,28.562a.592.592,0,1,0,.6.589A.588.588,0,0,0,45.493,28.562Z" transform="translate(-17.146 -8.917)" fill="#1c78f2"/>
      <path id="패스_87843" data-name="패스 87843" d="M45.493,22.433a.6.6,0,1,0,.6.6A.595.595,0,0,0,45.493,22.433Z" transform="translate(-17.146 -6.819)" fill="#1c78f2"/>
      <path id="패스_87844" data-name="패스 87844" d="M38.572,39.12a.6.6,0,0,0-.274.8.6.6,0,1,0,.274-.8Z" transform="translate(-14.453 -12.508)" fill="#1c78f2"/>
      <path id="패스_87845" data-name="패스 87845" d="M32.474,42.127A.6.6,0,0,0,33,43.193a.6.6,0,0,0,.268-.8A.588.588,0,0,0,32.474,42.127Z" transform="translate(-11.988 -13.135)" fill="#1c78f2"/>
      <path id="패스_87846" data-name="패스 87846" d="M35.522,40.62a.6.6,0,1,0,.8.274.6.6,0,0,0-.8-.274Z" transform="translate(-13.219 -13.022)" fill="#1c78f2"/>
      <path id="패스_87847" data-name="패스 87847" d="M16.656,40.618a.6.6,0,1,0,.268.8A.593.593,0,0,0,16.656,40.618Z" transform="translate(-5.376 -13.02)" fill="#1c78f2"/>
      <path id="패스_87848" data-name="패스 87848" d="M19.706,42.12a.6.6,0,1,0,.268.8.6.6,0,0,0-.268-.8Z" transform="translate(-6.609 -13.134)" fill="#1c78f2"/>
      <path id="패스_87849" data-name="패스 87849" d="M13.606,39.11a.6.6,0,1,0,.268.8A.6.6,0,0,0,13.606,39.11Z" transform="translate(-4.143 -12.505)" fill="#1c78f2"/>
      <path id="패스_87850" data-name="패스 87850" d="M6.7,29.749a.6.6,0,1,0-.6-.6.6.6,0,0,0,.6.6Z" transform="translate(-1.456 -8.913)" fill="#1c78f2"/>
      <path id="패스_87851" data-name="패스 87851" d="M6.7,26.687a.592.592,0,1,0-.6-.589.592.592,0,0,0,.6.589Z" transform="translate(-1.456 -7.87)" fill="#1c78f2"/>
      <path id="패스_87852" data-name="패스 87852" d="M6.7,23.63a.6.6,0,1,0-.6-.6.6.6,0,0,0,.6.6Z" transform="translate(-1.456 -6.819)" fill="#1c78f2"/>
      <path id="패스_87853" data-name="패스 87853" d="M19.706,10.065a.6.6,0,1,0-.8-.274A.6.6,0,0,0,19.706,10.065Z" transform="translate(-6.609 -2.602)" fill="#1c78f2"/>
      <path id="패스_87854" data-name="패스 87854" d="M16.656,11.567a.6.6,0,1,0-.8-.268A.593.593,0,0,0,16.656,11.567Z" transform="translate(-5.376 -2.716)" fill="#1c78f2"/>
      <path id="패스_87855" data-name="패스 87855" d="M13.606,13.075a.6.6,0,1,0-.8-.274A.6.6,0,0,0,13.606,13.075Z" transform="translate(-4.143 -3.231)" fill="#1c78f2"/>
      <path id="패스_87856" data-name="패스 87856" d="M32.474,10.059a.6.6,0,1,0-.268-.792.59.59,0,0,0,.268.792Z" transform="translate(-11.988 -2.602)" fill="#1c78f2"/>
      <path id="패스_87857" data-name="패스 87857" d="M35.522,11.565a.6.6,0,1,0-.274-.8A.6.6,0,0,0,35.522,11.565Z" transform="translate(-13.219 -2.714)" fill="#1c78f2"/>
      <path id="패스_87858" data-name="패스 87858" d="M38.572,13.067a.594.594,0,1,0-.274-.8A.593.593,0,0,0,38.572,13.067Z" transform="translate(-14.453 -3.229)" fill="#1c78f2"/>
      <path id="패스_87859" data-name="패스 87859" d="M31.086,12.849V10.13a.687.687,0,0,0-.3-.57L28.639,8.2a.545.545,0,0,0-.6,0L25.9,9.56a.672.672,0,0,0-.3.57V11.8l-5.115,3.112-3.1-1.907V8.983L19.236,7.81a.655.655,0,0,0,.238-.295.855.855,0,0,0,.06-.269V4.521a.672.672,0,0,0-.3-.57L17.092,2.588a.545.545,0,0,0-.6,0l-2.15,1.363a.672.672,0,0,0-.3.57V7.24a.792.792,0,0,0,.06.275.692.692,0,0,0,.238.295L16.2,8.983v4.023l-3.1,1.907L7.981,11.807V10.13a.672.672,0,0,0-.3-.57L5.54,8.2a.545.545,0,0,0-.6,0L2.8,9.56a.672.672,0,0,0-.3.57v2.719a.672.672,0,0,0,.3.57l2.144,1.363a.8.8,0,0,0,.3.092.686.686,0,0,0,.3-.092l2.144-1.363a.577.577,0,0,0,.179-.19L12.5,16.046V20.4L7.862,23.221a.741.741,0,0,0-.179-.19l-1.066-.675s0-.007-.006-.007-.006,0-.012-.007l-1.06-.675a.789.789,0,0,0-.274-.085.673.673,0,0,0-.322.085L2.8,23.031a.672.672,0,0,0-.3.57V26.32a.672.672,0,0,0,.3.57l2.144,1.363a.544.544,0,0,0,.3.085.559.559,0,0,0,.3-.085L7.683,26.89a.672.672,0,0,0,.3-.57V24.642l5.115-3.1,3.1,1.9v4.023l-1.852,1.179a.605.605,0,0,0-.244.308c0,.007-.006.013-.006.02a.612.612,0,0,0-.048.236v2.726a.669.669,0,0,0,.3.563l2.15,1.363a.537.537,0,0,0,.3.092.567.567,0,0,0,.3-.092L19.236,32.5a.669.669,0,0,0,.3-.563V29.209a.736.736,0,0,0-.06-.269.619.619,0,0,0-.238-.295L17.39,27.466V23.443l3.1-1.9L25.6,24.649V26.32a.672.672,0,0,0,.3.57l2.144,1.363a.558.558,0,0,0,.3.085.53.53,0,0,0,.3-.085l2.15-1.363a.687.687,0,0,0,.3-.57V23.6a.687.687,0,0,0-.3-.57l-2.15-1.363a.572.572,0,0,0-.274-.079.714.714,0,0,0-.322.079c-2.24,1.426-2.2,1.4-2.269,1.468a.836.836,0,0,0-.065.079L21.082,20.4V16.046l4.627-2.811a.75.75,0,0,0,.191.183l2.144,1.363a.969.969,0,0,0,.3.092.882.882,0,0,0,.292-.092l2.15-1.363a.687.687,0,0,0,.3-.57ZM16.2,21.943,13.692,20.41V16.774l2.507,1.54Zm.6-4.77L14.323,15.66l2.471-1.514L19.26,15.66Zm3.1,3.237-2.5,1.533v-3.63l2.5-1.54Z" transform="translate(0 0)" fill="#1c78f2"/>
    </g>
  </g>
</svg>
