<svg xmlns="http://www.w3.org/2000/svg" width="60" height="60" viewBox="0 0 60 60">
  <g id="icon2" transform="translate(-691.5 -3578)">
    <rect id="사각형_8920" data-name="사각형 8920" width="60" height="60" rx="12" transform="translate(691.5 3578)" fill="#efefef"/>
    <g id="free-icon-rocket-7406703" transform="translate(706.836 3593.335)">
      <path id="패스_87835" data-name="패스 87835" d="M3.346,319.941c-2.643,2.643-3.3,8.55-3.324,8.8a.859.859,0,0,0,.945.945c.25-.027,6.157-.68,8.8-3.324a4.541,4.541,0,1,0-6.421-6.421Z" transform="translate(-0.017 -300.363)" fill="#1c78f2"/>
      <path id="패스_87836" data-name="패스 87836" d="M.86,89.415H4.869a2.563,2.563,0,0,1,.164-2.081,25.334,25.334,0,0,1,5.554-7H5a.859.859,0,0,0-.749.438L.111,88.135A.862.862,0,0,0,.86,89.415Z" transform="translate(0 -75.732)" fill="#1c78f2"/>
      <path id="패스_87837" data-name="패스 87837" d="M275.231,332.743a2.563,2.563,0,0,1-2.081.164v4.009a.862.862,0,0,0,1.28.749l7.363-4.141a.859.859,0,0,0,.438-.749v-5.586a25.335,25.335,0,0,1-7,5.554Z" transform="translate(-257.503 -308.447)" fill="#1c78f2"/>
      <path id="패스_87838" data-name="패스 87838" d="M288.986,158.533a1.9,1.9,0,1,0,1.9,1.9A1.9,1.9,0,0,0,288.986,158.533Z" transform="translate(-270.639 -149.452)" fill="#1c78f2"/>
      <path id="패스_87839" data-name="패스 87839" d="M134.51,0h-1.137a23.58,23.58,0,0,0-20.787,12.416.859.859,0,0,0,.149,1.015l9.2,9.2a.862.862,0,0,0,1.015.149A23.58,23.58,0,0,0,135.37,2V.859A.859.859,0,0,0,134.51,0ZM124.387,14.6a3.62,3.62,0,1,1,3.62-3.62,3.624,3.624,0,0,1-3.62,3.62Z" transform="translate(-106.04)" fill="#1c78f2"/>
    </g>
  </g>
</svg>
