<svg xmlns="http://www.w3.org/2000/svg" width="60" height="60" viewBox="0 0 60 60">
  <g id="icon4" transform="translate(-1306.5 -3578)">
    <rect id="사각형_8924" data-name="사각형 8924" width="60" height="60" rx="12" transform="translate(1306.5 3578)" fill="#efefef"/>
    <g id="free-icon-cloud-hosting-9294354" transform="translate(1318.342 3591.439)">
      <path id="패스_87878" data-name="패스 87878" d="M32.359,12.7a4.1,4.1,0,0,0-2.811-2.56,4.374,4.374,0,0,0-1.1-4.417,4.318,4.318,0,0,0-4.517-1.054A5.946,5.946,0,0,0,18.1.5a5.9,5.9,0,0,0-5.722,4.216,4.294,4.294,0,0,0-4.617.9,4.274,4.274,0,0,0-1.2,4.567,4.055,4.055,0,0,0,1.2,7.93H9.371V16.209A1.51,1.51,0,0,1,10.877,14.7H25.533a1.51,1.51,0,0,1,1.506,1.506v1.857h1.1a4.221,4.221,0,0,0,3.313-1.2,3.854,3.854,0,0,0,.9-4.166Z" fill="#1c78f2"/>
      <path id="패스_87879" data-name="패스 87879" d="M32.057,45.506H26.336a1.727,1.727,0,0,0-1.1-1.1v-.954h6.826a.54.54,0,0,0,.5-.5V38.429a.54.54,0,0,0-.5-.5H25.232V36.321h6.826a.54.54,0,0,0,.5-.5V31.3a.54.54,0,0,0-.5-.5H17.4a.5.5,0,0,0-.5.5v4.517a.5.5,0,0,0,.5.5h6.826v1.606H17.4a.5.5,0,0,0-.5.5v4.517a.5.5,0,0,0,.5.5h6.826v1a1.727,1.727,0,0,0-1.1,1.1H17.4a.5.5,0,0,0,0,1h5.772a1.628,1.628,0,0,0,1.606,1.154,1.739,1.739,0,0,0,1.606-1.154h5.772a.474.474,0,0,0,.5-.5.6.6,0,0,0-.6-.552ZM29.4,32.958a.54.54,0,0,1,.5-.5.5.5,0,0,1,.5.5v1.2a.5.5,0,0,1-.5.5.54.54,0,0,1-.5-.5Zm-2.008,0a.5.5,0,0,1,1,0v1.2a.5.5,0,1,1-1,0Zm-2.058,0a.5.5,0,0,1,.5-.5.54.54,0,0,1,.5.5v1.2a.54.54,0,0,1-.5.5.5.5,0,0,1-.5-.5Zm-6.073,1a.5.5,0,0,1,.7-.7A.5.5,0,0,1,19.259,33.962Zm2.56,0a.5.5,0,0,1-.7-.7.5.5,0,0,1,.7.7ZM29.4,40.135a.54.54,0,0,1,.5-.5.5.5,0,0,1,.5.5v1.2a.5.5,0,0,1-.5.5.54.54,0,0,1-.5-.5Zm-2.008,0a.5.5,0,0,1,1,0v1.2a.5.5,0,0,1-1,0Zm-2.058,0a.5.5,0,0,1,.5-.5.54.54,0,0,1,.5.5v1.2a.54.54,0,0,1-.5.5.5.5,0,0,1-.5-.5Zm-6.073.954a.5.5,0,1,1,.7-.7A.5.5,0,0,1,19.259,41.089Zm2.56,0a.5.5,0,0,1-.7-.7.5.5,0,1,1,.7.7ZM24.73,46.71a.652.652,0,1,1,.652-.652A.605.605,0,0,1,24.73,46.71Z" transform="translate(-6.575 -15.092)" fill="#1c78f2"/>
    </g>
  </g>
</svg>
