<svg xmlns="http://www.w3.org/2000/svg" width="60" height="60" viewBox="0 0 60 60">
  <g id="icon1" transform="translate(-384 -3578)">
    <rect id="사각형_8918" data-name="사각형 8918" width="60" height="60" rx="12" transform="translate(384 3578)" fill="#efefef"/>
    <g id="free-icon-blockchain-7836729" transform="translate(393.057 3587.672)">
      <path id="패스_87860" data-name="패스 87860" d="M34.656,15.336a3.6,3.6,0,0,1-2.146-5.784L23.484,4.339a2.568,2.568,0,0,0-2.542,0L11.969,9.529a3.6,3.6,0,0,1-2.192,5.819,3.264,3.264,0,0,1-1.166,0V25.709a2.544,2.544,0,0,0,1.271,2.2l8.944,5.172a3.591,3.591,0,0,1,6.781,0l8.944-5.172a2.556,2.556,0,0,0,1.271-2.2V15.354a3.045,3.045,0,0,1-1.166-.017ZM22.7,28.508a.664.664,0,0,1-.758.087l-6.5-4.052a.582.582,0,0,1-.274-.5V16.438a.578.578,0,0,1,.286-.5l6.531-3.883a.574.574,0,0,1,.595,0l6.478,3.883a.6.6,0,0,1,.28.5v7.58a.57.57,0,0,1-.274.5Z" transform="translate(-1.305)" fill="#1c78f2"/>
      <path id="패스_87861" data-name="패스 87861" d="M30.212,51.71a2.417,2.417,0,1,0,2.417,2.417,2.417,2.417,0,0,0-2.417-2.417Z" transform="translate(-9.304 -19.89)" fill="#1c78f2"/>
      <path id="패스_87862" data-name="패스 87862" d="M10.319,15.67A2.42,2.42,0,1,0,7.9,18.09a2.42,2.42,0,0,0,2.42-2.42Z" transform="translate(0 -3.855)" fill="#1c78f2"/>
      <path id="패스_87863" data-name="패스 87863" d="M52.64,13.25a2.42,2.42,0,1,0,2.42,2.42,2.42,2.42,0,0,0-2.42-2.42Z" transform="translate(-18.653 -3.855)" fill="#1c78f2"/>
      <path id="패스_87864" data-name="패스 87864" d="M28.194,19.84l-5.394,3.2,5.394,3.224,5.341-3.224Z" transform="translate(-7.221 -6.603)" fill="#1c78f2"/>
      <path id="패스_87865" data-name="패스 87865" d="M21.85,33.356,27.214,36.7V30.3L21.85,27.1Z" transform="translate(-6.825 -9.63)" fill="#1c78f2"/>
      <path id="패스_87866" data-name="패스 87866" d="M33.05,36.661l5.306-3.329V27.11l-5.306,3.2Z" transform="translate(-11.495 -9.634)" fill="#1c78f2"/>
    </g>
  </g>
</svg>
